<svg xmlns="http://www.w3.org/2000/svg" viewBox="0 0 768.99 146.5"><title>damaa</title><path d="M122.5,21.5l0,40.4C107.49,42.14,89.42,35.65,70,35,42,35,5,57,5,100c1,34,25,61,65,65,37,0,65-32,65.5-65.5v-78a3,3,0,0,0-3-3h-7A3,3,0,0,0,122.5,21.5ZM71.7,152A52,52,0,1,1,122,101.7,52,52,0,0,1,71.7,152Z" transform="translate(-5 -18.5)"/><path d="M230,102.39V96.61A3.61,3.61,0,0,1,233.61,93H287c-3-23.94-23.89-47.88-55.76-48a3.87,3.87,0,0,0-.48,0c-27.83,3-52.64,16-56.73,54.67a4,4,0,0,0,0,.6c1,23.91,10.65,39.28,26.06,49a3.62,3.62,0,0,1,1.27,4.79l-2.49,4.57a3.63,3.63,0,0,1-5.17,1.29C172,145.6,161.18,125.59,161,100c0-38,35.93-68.94,68.91-67h.18c26.32-.61,66.8,17,69.9,66.79a2.94,2.94,0,0,1,0,.42c-1.23,33.78-15.29,48-31,59.61a3.6,3.6,0,0,1-5.1-.84l-2.7-3.85a3.61,3.61,0,0,1,.9-5.06c17.09-11.49,26.8-31.79,24.91-44.07H233.61A3.61,3.61,0,0,1,230,102.39Z" transform="translate(-5 -18.5)"/><path d="M397,46V93.3a4.69,4.69,0,0,1-4.7,4.7h-3.51a4.7,4.7,0,0,1-4.7-4.79L385,46c-8-2-49.8,9.94-53,53.68,0,.21,0,.43,0,.64,1,23.51,10.35,38.76,25.33,48.48a4.68,4.68,0,0,1,1.51,6.15l-1.44,2.63a4.68,4.68,0,0,1-6.71,1.67c-21-14.26-31.52-34-31.7-59.25,0-37.95,35.91-68.92,68.88-67h.24c26.31-.6,66.73,17,69.86,66.72a5.23,5.23,0,0,1,0,.56c-1.22,33.05-14.74,47.31-30.05,58.83a4.71,4.71,0,0,1-6.7-1.05l-1.69-2.42a4.7,4.7,0,0,1,.94-6.38c12.32-9.75,21.76-18.55,24.51-43.26C448,79,427,49,397,46Z" transform="translate(-5 -18.5)"/><path d="M546,102.27V96.73A3.73,3.73,0,0,1,549.73,93H603c-3-23.94-23.89-47.88-55.75-48a4.19,4.19,0,0,0-.5,0c-27.82,3-52.63,16-56.72,54.66a4.33,4.33,0,0,0,0,.62c1,23.85,10.62,39.2,26,48.9a3.72,3.72,0,0,1,1.3,4.94l-2.37,4.35a3.74,3.74,0,0,1-5.33,1.34C488,145.53,477.18,125.55,477,100c0-38,35.93-68.94,68.9-67h.2c26.31-.61,66.78,17,69.89,66.78a3.23,3.23,0,0,1,0,.44c-1.23,33.7-15.23,47.88-30.9,59.53a3.73,3.73,0,0,1-5.27-.87l-2.57-3.67a3.71,3.71,0,0,1,.92-5.2c17-11.49,26.72-31.75,24.83-44H549.73A3.73,3.73,0,0,1,546,102.27Z" transform="translate(-5 -18.5)"/><path d="M704,102V97a4,4,0,0,1,4-4h53c-3-23.93-23.88-47.87-55.73-48a4.89,4.89,0,0,0-.54,0c-27.81,3-52.6,16-56.7,54.64a4.85,4.85,0,0,0,0,.66c1,23.72,10.52,39,25.73,48.73a4,4,0,0,1,1.41,5.33l-2.09,3.84a4,4,0,0,1-5.75,1.43C645.88,145.37,635.18,125.44,635,100c0-38,35.92-68.93,68.89-67h.21c26.32-.61,66.78,17,69.89,66.76a3.84,3.84,0,0,1,0,.48c-1.23,33.52-15.09,47.72-30.66,59.33a4,4,0,0,1-5.68-.93l-2.24-3.19a4,4,0,0,1,1-5.6C753.3,138.33,762.88,118.2,761,106H708A4,4,0,0,1,704,102Z" transform="translate(-5 -18.5)"/></svg>
